%TF.GenerationSoftware,KiCad,Pcbnew,(5.1.10)-1*%
%TF.CreationDate,2021-12-14T18:21:36+01:00*%
%TF.ProjectId,SensitivePen_PressureConnector,53656e73-6974-4697-9665-50656e5f5072,rev?*%
%TF.SameCoordinates,Original*%
%TF.FileFunction,Profile,NP*%
%FSLAX46Y46*%
G04 Gerber Fmt 4.6, Leading zero omitted, Abs format (unit mm)*
G04 Created by KiCad (PCBNEW (5.1.10)-1) date 2021-12-14 18:21:36*
%MOMM*%
%LPD*%
G01*
G04 APERTURE LIST*
%TA.AperFunction,Profile*%
%ADD10C,0.050000*%
%TD*%
G04 APERTURE END LIST*
D10*
X183300256Y-112717284D02*
X183298304Y-112640097D01*
X183298304Y-112640097D02*
X183292511Y-112563923D01*
X183292511Y-112563923D02*
X183282973Y-112488857D01*
X183282973Y-112488857D02*
X183269782Y-112414992D01*
X183269782Y-112414992D02*
X183253033Y-112342423D01*
X183253033Y-112342423D02*
X183232821Y-112271245D01*
X183232821Y-112271245D02*
X183209239Y-112201550D01*
X183209239Y-112201550D02*
X183182381Y-112133434D01*
X183182381Y-112133434D02*
X183152343Y-112066991D01*
X183152343Y-112066991D02*
X183119218Y-112002316D01*
X183119218Y-112002316D02*
X183083101Y-111939501D01*
X183083101Y-111939501D02*
X183044085Y-111878642D01*
X183044085Y-111878642D02*
X183002265Y-111819833D01*
X183002265Y-111819833D02*
X182957735Y-111763169D01*
X182957735Y-111763169D02*
X182910590Y-111708742D01*
X182910590Y-111708742D02*
X182860924Y-111656649D01*
X182860924Y-111656649D02*
X182808830Y-111606982D01*
X182808830Y-111606982D02*
X182754403Y-111559836D01*
X182754403Y-111559836D02*
X182697738Y-111515306D01*
X182697738Y-111515306D02*
X182638928Y-111473486D01*
X182638928Y-111473486D02*
X182578068Y-111434469D01*
X182578068Y-111434469D02*
X182515252Y-111398351D01*
X182515252Y-111398351D02*
X182450574Y-111365225D01*
X182450574Y-111365225D02*
X182384129Y-111335186D01*
X182384129Y-111335186D02*
X182316010Y-111308328D01*
X182316010Y-111308328D02*
X182246312Y-111284745D01*
X182246312Y-111284745D02*
X182175130Y-111264532D01*
X182175130Y-111264532D02*
X182102557Y-111247783D01*
X182102557Y-111247783D02*
X182028688Y-111234591D01*
X182028688Y-111234591D02*
X181953616Y-111225052D01*
X181953616Y-111225052D02*
X181877437Y-111219259D01*
X181877437Y-111219259D02*
X181800244Y-111217308D01*
X183300256Y-112717320D02*
X183300256Y-112717284D01*
X181899975Y-114207277D02*
X181972710Y-114200657D01*
X181972710Y-114200657D02*
X182044413Y-114190654D01*
X182044413Y-114190654D02*
X182115001Y-114177348D01*
X182115001Y-114177348D02*
X182184390Y-114160821D01*
X182184390Y-114160821D02*
X182252495Y-114141152D01*
X182252495Y-114141152D02*
X182319233Y-114118423D01*
X182319233Y-114118423D02*
X182384521Y-114092713D01*
X182384521Y-114092713D02*
X182448274Y-114064105D01*
X182448274Y-114064105D02*
X182510409Y-114032677D01*
X182510409Y-114032677D02*
X182570842Y-113998512D01*
X182570842Y-113998512D02*
X182629489Y-113961689D01*
X182629489Y-113961689D02*
X182686267Y-113922289D01*
X182686267Y-113922289D02*
X182741092Y-113880393D01*
X182741092Y-113880393D02*
X182793879Y-113836081D01*
X182793879Y-113836081D02*
X182844546Y-113789434D01*
X182844546Y-113789434D02*
X182893009Y-113740533D01*
X182893009Y-113740533D02*
X182939183Y-113689459D01*
X182939183Y-113689459D02*
X182982985Y-113636291D01*
X182982985Y-113636291D02*
X183024332Y-113581111D01*
X183024332Y-113581111D02*
X183063139Y-113523998D01*
X183063139Y-113523998D02*
X183099323Y-113465035D01*
X183099323Y-113465035D02*
X183132799Y-113404301D01*
X183132799Y-113404301D02*
X183163485Y-113341878D01*
X183163485Y-113341878D02*
X183191297Y-113277844D01*
X183191297Y-113277844D02*
X183216150Y-113212283D01*
X183216150Y-113212283D02*
X183237961Y-113145273D01*
X183237961Y-113145273D02*
X183256647Y-113076895D01*
X183256647Y-113076895D02*
X183272122Y-113007231D01*
X183272122Y-113007231D02*
X183284305Y-112936361D01*
X183284305Y-112936361D02*
X183293111Y-112864365D01*
X183293111Y-112864365D02*
X183298455Y-112791325D01*
X183298455Y-112791325D02*
X183300256Y-112717320D01*
X181899975Y-114919012D02*
X181899975Y-114207277D01*
X182699992Y-114919012D02*
X182636905Y-114919012D01*
X182636905Y-114919012D02*
X182561839Y-114919012D01*
X182561839Y-114919012D02*
X182502152Y-114919012D01*
X182502152Y-114919012D02*
X182436971Y-114919012D01*
X182436971Y-114919012D02*
X182368201Y-114919012D01*
X182368201Y-114919012D02*
X182297747Y-114919012D01*
X182297747Y-114919012D02*
X182227512Y-114919012D01*
X182227512Y-114919012D02*
X182159401Y-114919012D01*
X182159401Y-114919012D02*
X182095319Y-114919012D01*
X182095319Y-114919012D02*
X182037170Y-114919012D01*
X182037170Y-114919012D02*
X181986857Y-114919012D01*
X181986857Y-114919012D02*
X181930249Y-114919012D01*
X181930249Y-114919012D02*
X181899975Y-114919012D01*
X182699992Y-120000000D02*
X182699992Y-114919012D01*
X178900000Y-120000000D02*
X178959155Y-120000000D01*
X178959155Y-120000000D02*
X179017031Y-120000000D01*
X179017031Y-120000000D02*
X179091991Y-120000000D01*
X179091991Y-120000000D02*
X179182699Y-120000000D01*
X179182699Y-120000000D02*
X179287816Y-120000000D01*
X179287816Y-120000000D02*
X179406007Y-120000000D01*
X179406007Y-120000000D02*
X179535936Y-120000000D01*
X179535936Y-120000000D02*
X179676264Y-120000000D01*
X179676264Y-120000000D02*
X179825657Y-120000000D01*
X179825657Y-120000000D02*
X179982776Y-120000000D01*
X179982776Y-120000000D02*
X180146286Y-120000000D01*
X180146286Y-120000000D02*
X180314850Y-120000000D01*
X180314850Y-120000000D02*
X180487130Y-120000000D01*
X180487130Y-120000000D02*
X180661791Y-120000000D01*
X180661791Y-120000000D02*
X180837496Y-120000000D01*
X180837496Y-120000000D02*
X181012907Y-120000000D01*
X181012907Y-120000000D02*
X181186689Y-120000000D01*
X181186689Y-120000000D02*
X181357505Y-120000000D01*
X181357505Y-120000000D02*
X181524017Y-120000000D01*
X181524017Y-120000000D02*
X181684891Y-120000000D01*
X181684891Y-120000000D02*
X181838787Y-120000000D01*
X181838787Y-120000000D02*
X181984371Y-120000000D01*
X181984371Y-120000000D02*
X182120305Y-120000000D01*
X182120305Y-120000000D02*
X182245253Y-120000000D01*
X182245253Y-120000000D02*
X182357878Y-120000000D01*
X182357878Y-120000000D02*
X182456843Y-120000000D01*
X182456843Y-120000000D02*
X182540812Y-120000000D01*
X182540812Y-120000000D02*
X182608448Y-120000000D01*
X182608448Y-120000000D02*
X182689374Y-120000000D01*
X182689374Y-120000000D02*
X182699992Y-120000000D01*
X178900000Y-114919012D02*
X178900000Y-120000000D01*
X179699982Y-114919012D02*
X178900000Y-114919012D01*
X179699982Y-114207206D02*
X179699982Y-114919012D01*
X178300266Y-112717320D02*
X178302065Y-112791308D01*
X178302065Y-112791308D02*
X178307407Y-112864333D01*
X178307407Y-112864333D02*
X178316209Y-112936314D01*
X178316209Y-112936314D02*
X178328386Y-113007169D01*
X178328386Y-113007169D02*
X178343855Y-113076819D01*
X178343855Y-113076819D02*
X178362532Y-113145183D01*
X178362532Y-113145183D02*
X178384333Y-113212180D01*
X178384333Y-113212180D02*
X178409176Y-113277729D01*
X178409176Y-113277729D02*
X178436975Y-113341751D01*
X178436975Y-113341751D02*
X178467647Y-113404164D01*
X178467647Y-113404164D02*
X178501110Y-113464889D01*
X178501110Y-113464889D02*
X178537278Y-113523843D01*
X178537278Y-113523843D02*
X178576068Y-113580947D01*
X178576068Y-113580947D02*
X178617397Y-113636121D01*
X178617397Y-113636121D02*
X178661181Y-113689283D01*
X178661181Y-113689283D02*
X178707336Y-113740353D01*
X178707336Y-113740353D02*
X178755778Y-113789250D01*
X178755778Y-113789250D02*
X178806424Y-113835894D01*
X178806424Y-113835894D02*
X178859189Y-113880205D01*
X178859189Y-113880205D02*
X178913992Y-113922101D01*
X178913992Y-113922101D02*
X178970746Y-113961502D01*
X178970746Y-113961502D02*
X179029370Y-113998328D01*
X179029370Y-113998328D02*
X179089779Y-114032498D01*
X179089779Y-114032498D02*
X179151889Y-114063931D01*
X179151889Y-114063931D02*
X179215618Y-114092547D01*
X179215618Y-114092547D02*
X179280880Y-114118265D01*
X179280880Y-114118265D02*
X179347592Y-114141004D01*
X179347592Y-114141004D02*
X179415672Y-114160685D01*
X179415672Y-114160685D02*
X179485034Y-114177226D01*
X179485034Y-114177226D02*
X179555595Y-114190547D01*
X179555595Y-114190547D02*
X179627273Y-114200567D01*
X179627273Y-114200567D02*
X179699982Y-114207206D01*
X178300266Y-112717284D02*
X178300266Y-112717320D01*
X179800277Y-111217308D02*
X179723083Y-111219259D01*
X179723083Y-111219259D02*
X179646904Y-111225052D01*
X179646904Y-111225052D02*
X179571833Y-111234591D01*
X179571833Y-111234591D02*
X179497963Y-111247783D01*
X179497963Y-111247783D02*
X179425390Y-111264532D01*
X179425390Y-111264532D02*
X179354208Y-111284745D01*
X179354208Y-111284745D02*
X179284510Y-111308328D01*
X179284510Y-111308328D02*
X179216392Y-111335186D01*
X179216392Y-111335186D02*
X179149946Y-111365225D01*
X179149946Y-111365225D02*
X179085269Y-111398351D01*
X179085269Y-111398351D02*
X179022453Y-111434469D01*
X179022453Y-111434469D02*
X178961593Y-111473486D01*
X178961593Y-111473486D02*
X178902783Y-111515306D01*
X178902783Y-111515306D02*
X178846117Y-111559836D01*
X178846117Y-111559836D02*
X178791691Y-111606982D01*
X178791691Y-111606982D02*
X178739597Y-111656649D01*
X178739597Y-111656649D02*
X178689930Y-111708742D01*
X178689930Y-111708742D02*
X178642785Y-111763169D01*
X178642785Y-111763169D02*
X178598256Y-111819833D01*
X178598256Y-111819833D02*
X178556436Y-111878642D01*
X178556436Y-111878642D02*
X178517420Y-111939501D01*
X178517420Y-111939501D02*
X178481303Y-112002316D01*
X178481303Y-112002316D02*
X178448178Y-112066991D01*
X178448178Y-112066991D02*
X178418139Y-112133434D01*
X178418139Y-112133434D02*
X178391282Y-112201550D01*
X178391282Y-112201550D02*
X178367700Y-112271245D01*
X178367700Y-112271245D02*
X178347488Y-112342423D01*
X178347488Y-112342423D02*
X178330739Y-112414992D01*
X178330739Y-112414992D02*
X178317548Y-112488857D01*
X178317548Y-112488857D02*
X178308010Y-112563923D01*
X178308010Y-112563923D02*
X178302217Y-112640097D01*
X178302217Y-112640097D02*
X178300266Y-112717284D01*
X181800244Y-111217308D02*
X179800277Y-111217308D01*
M02*
