%TF.GenerationSoftware,KiCad,Pcbnew,(5.1.10)-1*%
%TF.CreationDate,2021-12-14T18:21:36+01:00*%
%TF.ProjectId,SensitivePen_PressureConnector,53656e73-6974-4697-9665-50656e5f5072,rev?*%
%TF.SameCoordinates,Original*%
%TF.FileFunction,Soldermask,Top*%
%TF.FilePolarity,Negative*%
%FSLAX46Y46*%
G04 Gerber Fmt 4.6, Leading zero omitted, Abs format (unit mm)*
G04 Created by KiCad (PCBNEW (5.1.10)-1) date 2021-12-14 18:21:36*
%MOMM*%
%LPD*%
G01*
G04 APERTURE LIST*
%ADD10C,0.100000*%
%ADD11C,1.524000*%
%ADD12R,1.350000X1.350000*%
%ADD13O,1.350000X1.350000*%
G04 APERTURE END LIST*
D10*
%TO.C,J2*%
G36*
X182316380Y-119694920D02*
G01*
X181892200Y-119694920D01*
X181889660Y-117538460D01*
X180093880Y-117535920D01*
X180093880Y-115991600D01*
X180982880Y-115991600D01*
X180982880Y-115206740D01*
X182316380Y-115206740D01*
X182316380Y-119694920D01*
G37*
X182316380Y-119694920D02*
X181892200Y-119694920D01*
X181889660Y-117538460D01*
X180093880Y-117535920D01*
X180093880Y-115991600D01*
X180982880Y-115991600D01*
X180982880Y-115206740D01*
X182316380Y-115206740D01*
X182316380Y-119694920D01*
G36*
X180622200Y-115608060D02*
G01*
X179712880Y-115608060D01*
X179712880Y-117916920D01*
X181511200Y-117916920D01*
X181511200Y-119694920D01*
X179288700Y-119694920D01*
X179288700Y-115206740D01*
X180622200Y-115206740D01*
X180622200Y-115608060D01*
G37*
X180622200Y-115608060D02*
X179712880Y-115608060D01*
X179712880Y-117916920D01*
X181511200Y-117916920D01*
X181511200Y-119694920D01*
X179288700Y-119694920D01*
X179288700Y-115206740D01*
X180622200Y-115206740D01*
X180622200Y-115608060D01*
%TD*%
D11*
%TO.C,J2*%
X181810000Y-112714000D03*
X179780000Y-112714000D03*
%TD*%
D12*
%TO.C,J1*%
X179800000Y-112700000D03*
D13*
X181800000Y-112700000D03*
%TD*%
M02*
