%TF.GenerationSoftware,KiCad,Pcbnew,(5.1.10)-1*%
%TF.CreationDate,2022-02-21T15:46:47+01:00*%
%TF.ProjectId,MovuinoShieldPressure,4d6f7675-696e-46f5-9368-69656c645072,1.0*%
%TF.SameCoordinates,Original*%
%TF.FileFunction,Legend,Bot*%
%TF.FilePolarity,Positive*%
%FSLAX46Y46*%
G04 Gerber Fmt 4.6, Leading zero omitted, Abs format (unit mm)*
G04 Created by KiCad (PCBNEW (5.1.10)-1) date 2022-02-21 15:46:47*
%MOMM*%
%LPD*%
G01*
G04 APERTURE LIST*
%ADD10C,0.100000*%
%ADD11C,0.120000*%
%ADD12C,0.150000*%
G04 APERTURE END LIST*
D10*
X109761904Y-30855476D02*
X108961904Y-30855476D01*
X108961904Y-31160238D01*
X109000000Y-31236428D01*
X109038095Y-31274523D01*
X109114285Y-31312619D01*
X109228571Y-31312619D01*
X109304761Y-31274523D01*
X109342857Y-31236428D01*
X109380952Y-31160238D01*
X109380952Y-30855476D01*
X109761904Y-31655476D02*
X109228571Y-31655476D01*
X109380952Y-31655476D02*
X109304761Y-31693571D01*
X109266666Y-31731666D01*
X109228571Y-31807857D01*
X109228571Y-31884047D01*
X109723809Y-32455476D02*
X109761904Y-32379285D01*
X109761904Y-32226904D01*
X109723809Y-32150714D01*
X109647619Y-32112619D01*
X109342857Y-32112619D01*
X109266666Y-32150714D01*
X109228571Y-32226904D01*
X109228571Y-32379285D01*
X109266666Y-32455476D01*
X109342857Y-32493571D01*
X109419047Y-32493571D01*
X109495238Y-32112619D01*
X109723809Y-32798333D02*
X109761904Y-32874523D01*
X109761904Y-33026904D01*
X109723809Y-33103095D01*
X109647619Y-33141190D01*
X109609523Y-33141190D01*
X109533333Y-33103095D01*
X109495238Y-33026904D01*
X109495238Y-32912619D01*
X109457142Y-32836428D01*
X109380952Y-32798333D01*
X109342857Y-32798333D01*
X109266666Y-32836428D01*
X109228571Y-32912619D01*
X109228571Y-33026904D01*
X109266666Y-33103095D01*
X109723809Y-33445952D02*
X109761904Y-33522142D01*
X109761904Y-33674523D01*
X109723809Y-33750714D01*
X109647619Y-33788809D01*
X109609523Y-33788809D01*
X109533333Y-33750714D01*
X109495238Y-33674523D01*
X109495238Y-33560238D01*
X109457142Y-33484047D01*
X109380952Y-33445952D01*
X109342857Y-33445952D01*
X109266666Y-33484047D01*
X109228571Y-33560238D01*
X109228571Y-33674523D01*
X109266666Y-33750714D01*
X109228571Y-34474523D02*
X109761904Y-34474523D01*
X109228571Y-34131666D02*
X109647619Y-34131666D01*
X109723809Y-34169761D01*
X109761904Y-34245952D01*
X109761904Y-34360238D01*
X109723809Y-34436428D01*
X109685714Y-34474523D01*
X109761904Y-34855476D02*
X109228571Y-34855476D01*
X109380952Y-34855476D02*
X109304761Y-34893571D01*
X109266666Y-34931666D01*
X109228571Y-35007857D01*
X109228571Y-35084047D01*
X109723809Y-35655476D02*
X109761904Y-35579285D01*
X109761904Y-35426904D01*
X109723809Y-35350714D01*
X109647619Y-35312619D01*
X109342857Y-35312619D01*
X109266666Y-35350714D01*
X109228571Y-35426904D01*
X109228571Y-35579285D01*
X109266666Y-35655476D01*
X109342857Y-35693571D01*
X109419047Y-35693571D01*
X109495238Y-35312619D01*
X109723809Y-36607857D02*
X109761904Y-36722142D01*
X109761904Y-36912619D01*
X109723809Y-36988809D01*
X109685714Y-37026904D01*
X109609523Y-37065000D01*
X109533333Y-37065000D01*
X109457142Y-37026904D01*
X109419047Y-36988809D01*
X109380952Y-36912619D01*
X109342857Y-36760238D01*
X109304761Y-36684047D01*
X109266666Y-36645952D01*
X109190476Y-36607857D01*
X109114285Y-36607857D01*
X109038095Y-36645952D01*
X109000000Y-36684047D01*
X108961904Y-36760238D01*
X108961904Y-36950714D01*
X109000000Y-37065000D01*
X109761904Y-37407857D02*
X108961904Y-37407857D01*
X109761904Y-37750714D02*
X109342857Y-37750714D01*
X109266666Y-37712619D01*
X109228571Y-37636428D01*
X109228571Y-37522142D01*
X109266666Y-37445952D01*
X109304761Y-37407857D01*
X109761904Y-38131666D02*
X109228571Y-38131666D01*
X108961904Y-38131666D02*
X109000000Y-38093571D01*
X109038095Y-38131666D01*
X109000000Y-38169761D01*
X108961904Y-38131666D01*
X109038095Y-38131666D01*
X109723809Y-38817380D02*
X109761904Y-38741190D01*
X109761904Y-38588809D01*
X109723809Y-38512619D01*
X109647619Y-38474523D01*
X109342857Y-38474523D01*
X109266666Y-38512619D01*
X109228571Y-38588809D01*
X109228571Y-38741190D01*
X109266666Y-38817380D01*
X109342857Y-38855476D01*
X109419047Y-38855476D01*
X109495238Y-38474523D01*
X109761904Y-39312619D02*
X109723809Y-39236428D01*
X109647619Y-39198333D01*
X108961904Y-39198333D01*
X109761904Y-39960238D02*
X108961904Y-39960238D01*
X109723809Y-39960238D02*
X109761904Y-39884047D01*
X109761904Y-39731666D01*
X109723809Y-39655476D01*
X109685714Y-39617380D01*
X109609523Y-39579285D01*
X109380952Y-39579285D01*
X109304761Y-39617380D01*
X109266666Y-39655476D01*
X109228571Y-39731666D01*
X109228571Y-39884047D01*
X109266666Y-39960238D01*
X109228571Y-40874523D02*
X109761904Y-41065000D01*
X109228571Y-41255476D01*
X109761904Y-41979285D02*
X109761904Y-41522142D01*
X109761904Y-41750714D02*
X108961904Y-41750714D01*
X109076190Y-41674523D01*
X109152380Y-41598333D01*
X109190476Y-41522142D01*
X109685714Y-42322142D02*
X109723809Y-42360238D01*
X109761904Y-42322142D01*
X109723809Y-42284047D01*
X109685714Y-42322142D01*
X109761904Y-42322142D01*
X109761904Y-43122142D02*
X109761904Y-42665000D01*
X109761904Y-42893571D02*
X108961904Y-42893571D01*
X109076190Y-42817380D01*
X109152380Y-42741190D01*
X109190476Y-42665000D01*
X109761904Y-44074523D02*
X108961904Y-44074523D01*
X109266666Y-44074523D02*
X109228571Y-44150714D01*
X109228571Y-44303095D01*
X109266666Y-44379285D01*
X109304761Y-44417380D01*
X109380952Y-44455476D01*
X109609523Y-44455476D01*
X109685714Y-44417380D01*
X109723809Y-44379285D01*
X109761904Y-44303095D01*
X109761904Y-44150714D01*
X109723809Y-44074523D01*
X109228571Y-44722142D02*
X109761904Y-44912619D01*
X109228571Y-45103095D02*
X109761904Y-44912619D01*
X109952380Y-44836428D01*
X109990476Y-44798333D01*
X110028571Y-44722142D01*
X109533333Y-45979285D02*
X109533333Y-46360238D01*
X109761904Y-45903095D02*
X108961904Y-46169761D01*
X109761904Y-46436428D01*
X109761904Y-47045952D02*
X108961904Y-47045952D01*
X109723809Y-47045952D02*
X109761904Y-46969761D01*
X109761904Y-46817380D01*
X109723809Y-46741190D01*
X109685714Y-46703095D01*
X109609523Y-46665000D01*
X109380952Y-46665000D01*
X109304761Y-46703095D01*
X109266666Y-46741190D01*
X109228571Y-46817380D01*
X109228571Y-46969761D01*
X109266666Y-47045952D01*
X109761904Y-47426904D02*
X109228571Y-47426904D01*
X109380952Y-47426904D02*
X109304761Y-47465000D01*
X109266666Y-47503095D01*
X109228571Y-47579285D01*
X109228571Y-47655476D01*
X109761904Y-47922142D02*
X109228571Y-47922142D01*
X108961904Y-47922142D02*
X109000000Y-47884047D01*
X109038095Y-47922142D01*
X109000000Y-47960238D01*
X108961904Y-47922142D01*
X109038095Y-47922142D01*
X109723809Y-48607857D02*
X109761904Y-48531666D01*
X109761904Y-48379285D01*
X109723809Y-48303095D01*
X109647619Y-48265000D01*
X109342857Y-48265000D01*
X109266666Y-48303095D01*
X109228571Y-48379285D01*
X109228571Y-48531666D01*
X109266666Y-48607857D01*
X109342857Y-48645952D01*
X109419047Y-48645952D01*
X109495238Y-48265000D01*
X109228571Y-48988809D02*
X109761904Y-48988809D01*
X109304761Y-48988809D02*
X109266666Y-49026904D01*
X109228571Y-49103095D01*
X109228571Y-49217380D01*
X109266666Y-49293571D01*
X109342857Y-49331666D01*
X109761904Y-49331666D01*
X109761904Y-50322142D02*
X108961904Y-50322142D01*
X109342857Y-50322142D02*
X109342857Y-50779285D01*
X109761904Y-50779285D02*
X108961904Y-50779285D01*
X109228571Y-51503095D02*
X109761904Y-51503095D01*
X109228571Y-51160238D02*
X109647619Y-51160238D01*
X109723809Y-51198333D01*
X109761904Y-51274523D01*
X109761904Y-51388809D01*
X109723809Y-51465000D01*
X109685714Y-51503095D01*
X109723809Y-51845952D02*
X109761904Y-51922142D01*
X109761904Y-52074523D01*
X109723809Y-52150714D01*
X109647619Y-52188809D01*
X109609523Y-52188809D01*
X109533333Y-52150714D01*
X109495238Y-52074523D01*
X109495238Y-51960238D01*
X109457142Y-51884047D01*
X109380952Y-51845952D01*
X109342857Y-51845952D01*
X109266666Y-51884047D01*
X109228571Y-51960238D01*
X109228571Y-52074523D01*
X109266666Y-52150714D01*
X109723809Y-52493571D02*
X109761904Y-52569761D01*
X109761904Y-52722142D01*
X109723809Y-52798333D01*
X109647619Y-52836428D01*
X109609523Y-52836428D01*
X109533333Y-52798333D01*
X109495238Y-52722142D01*
X109495238Y-52607857D01*
X109457142Y-52531666D01*
X109380952Y-52493571D01*
X109342857Y-52493571D01*
X109266666Y-52531666D01*
X109228571Y-52607857D01*
X109228571Y-52722142D01*
X109266666Y-52798333D01*
X109761904Y-53293571D02*
X109723809Y-53217380D01*
X109685714Y-53179285D01*
X109609523Y-53141190D01*
X109380952Y-53141190D01*
X109304761Y-53179285D01*
X109266666Y-53217380D01*
X109228571Y-53293571D01*
X109228571Y-53407857D01*
X109266666Y-53484047D01*
X109304761Y-53522142D01*
X109380952Y-53560238D01*
X109609523Y-53560238D01*
X109685714Y-53522142D01*
X109723809Y-53484047D01*
X109761904Y-53407857D01*
X109761904Y-53293571D01*
X109228571Y-53903095D02*
X109761904Y-53903095D01*
X109304761Y-53903095D02*
X109266666Y-53941190D01*
X109228571Y-54017380D01*
X109228571Y-54131666D01*
X109266666Y-54207857D01*
X109342857Y-54245952D01*
X109761904Y-54245952D01*
D11*
%TO.C,Rref*%
X105254724Y-55477500D02*
X104745276Y-55477500D01*
X105254724Y-56522500D02*
X104745276Y-56522500D01*
D12*
X105714285Y-58252380D02*
X106047619Y-57776190D01*
X106285714Y-58252380D02*
X106285714Y-57252380D01*
X105904761Y-57252380D01*
X105809523Y-57300000D01*
X105761904Y-57347619D01*
X105714285Y-57442857D01*
X105714285Y-57585714D01*
X105761904Y-57680952D01*
X105809523Y-57728571D01*
X105904761Y-57776190D01*
X106285714Y-57776190D01*
X105285714Y-58252380D02*
X105285714Y-57585714D01*
X105285714Y-57776190D02*
X105238095Y-57680952D01*
X105190476Y-57633333D01*
X105095238Y-57585714D01*
X105000000Y-57585714D01*
X104285714Y-58204761D02*
X104380952Y-58252380D01*
X104571428Y-58252380D01*
X104666666Y-58204761D01*
X104714285Y-58109523D01*
X104714285Y-57728571D01*
X104666666Y-57633333D01*
X104571428Y-57585714D01*
X104380952Y-57585714D01*
X104285714Y-57633333D01*
X104238095Y-57728571D01*
X104238095Y-57823809D01*
X104714285Y-57919047D01*
X103952380Y-57585714D02*
X103571428Y-57585714D01*
X103809523Y-58252380D02*
X103809523Y-57395238D01*
X103761904Y-57300000D01*
X103666666Y-57252380D01*
X103571428Y-57252380D01*
%TD*%
M02*
