%TF.GenerationSoftware,KiCad,Pcbnew,(5.1.10)-1*%
%TF.CreationDate,2022-02-21T15:46:47+01:00*%
%TF.ProjectId,MovuinoShieldPressure,4d6f7675-696e-46f5-9368-69656c645072,1.0*%
%TF.SameCoordinates,Original*%
%TF.FileFunction,Soldermask,Top*%
%TF.FilePolarity,Negative*%
%FSLAX46Y46*%
G04 Gerber Fmt 4.6, Leading zero omitted, Abs format (unit mm)*
G04 Created by KiCad (PCBNEW (5.1.10)-1) date 2022-02-21 15:46:47*
%MOMM*%
%LPD*%
G01*
G04 APERTURE LIST*
%ADD10C,2.100000*%
%ADD11O,1.700000X1.700000*%
%ADD12R,1.700000X1.700000*%
%ADD13C,0.700000*%
G04 APERTURE END LIST*
%TO.C,J1*%
G36*
G01*
X100899900Y-50498400D02*
X102499900Y-50498400D01*
G75*
G02*
X102601500Y-50600000I0J-101600D01*
G01*
X102601500Y-50900000D01*
G75*
G02*
X102499900Y-51001600I-101600J0D01*
G01*
X100899900Y-51001600D01*
G75*
G02*
X100798300Y-50900000I0J101600D01*
G01*
X100798300Y-50600000D01*
G75*
G02*
X100899900Y-50498400I101600J0D01*
G01*
G37*
G36*
G01*
X100899900Y-41998400D02*
X102499900Y-41998400D01*
G75*
G02*
X102601500Y-42100000I0J-101600D01*
G01*
X102601500Y-42400000D01*
G75*
G02*
X102499900Y-42501600I-101600J0D01*
G01*
X100899900Y-42501600D01*
G75*
G02*
X100798300Y-42400000I0J101600D01*
G01*
X100798300Y-42100000D01*
G75*
G02*
X100899900Y-41998400I101600J0D01*
G01*
G37*
G36*
G01*
X104500100Y-41998400D02*
X106100100Y-41998400D01*
G75*
G02*
X106201700Y-42100000I0J-101600D01*
G01*
X106201700Y-42400000D01*
G75*
G02*
X106100100Y-42501600I-101600J0D01*
G01*
X104500100Y-42501600D01*
G75*
G02*
X104398500Y-42400000I0J101600D01*
G01*
X104398500Y-42100000D01*
G75*
G02*
X104500100Y-41998400I101600J0D01*
G01*
G37*
G36*
G01*
X104500100Y-50498400D02*
X106100100Y-50498400D01*
G75*
G02*
X106201700Y-50600000I0J-101600D01*
G01*
X106201700Y-50900000D01*
G75*
G02*
X106100100Y-51001600I-101600J0D01*
G01*
X104500100Y-51001600D01*
G75*
G02*
X104398500Y-50900000I0J101600D01*
G01*
X104398500Y-50600000D01*
G75*
G02*
X104500100Y-50498400I101600J0D01*
G01*
G37*
G36*
G01*
X104500100Y-49998400D02*
X106100100Y-49998400D01*
G75*
G02*
X106201700Y-50100000I0J-101600D01*
G01*
X106201700Y-50400000D01*
G75*
G02*
X106100100Y-50501600I-101600J0D01*
G01*
X104500100Y-50501600D01*
G75*
G02*
X104398500Y-50400000I0J101600D01*
G01*
X104398500Y-50100000D01*
G75*
G02*
X104500100Y-49998400I101600J0D01*
G01*
G37*
G36*
G01*
X100899900Y-49998400D02*
X102499900Y-49998400D01*
G75*
G02*
X102601500Y-50100000I0J-101600D01*
G01*
X102601500Y-50400000D01*
G75*
G02*
X102499900Y-50501600I-101600J0D01*
G01*
X100899900Y-50501600D01*
G75*
G02*
X100798300Y-50400000I0J101600D01*
G01*
X100798300Y-50100000D01*
G75*
G02*
X100899900Y-49998400I101600J0D01*
G01*
G37*
G36*
G01*
X104500100Y-49498400D02*
X106100100Y-49498400D01*
G75*
G02*
X106201700Y-49600000I0J-101600D01*
G01*
X106201700Y-49900000D01*
G75*
G02*
X106100100Y-50001600I-101600J0D01*
G01*
X104500100Y-50001600D01*
G75*
G02*
X104398500Y-49900000I0J101600D01*
G01*
X104398500Y-49600000D01*
G75*
G02*
X104500100Y-49498400I101600J0D01*
G01*
G37*
G36*
G01*
X100899900Y-49498400D02*
X102499900Y-49498400D01*
G75*
G02*
X102601500Y-49600000I0J-101600D01*
G01*
X102601500Y-49900000D01*
G75*
G02*
X102499900Y-50001600I-101600J0D01*
G01*
X100899900Y-50001600D01*
G75*
G02*
X100798300Y-49900000I0J101600D01*
G01*
X100798300Y-49600000D01*
G75*
G02*
X100899900Y-49498400I101600J0D01*
G01*
G37*
G36*
G01*
X104500100Y-48998400D02*
X106100100Y-48998400D01*
G75*
G02*
X106201700Y-49100000I0J-101600D01*
G01*
X106201700Y-49400000D01*
G75*
G02*
X106100100Y-49501600I-101600J0D01*
G01*
X104500100Y-49501600D01*
G75*
G02*
X104398500Y-49400000I0J101600D01*
G01*
X104398500Y-49100000D01*
G75*
G02*
X104500100Y-48998400I101600J0D01*
G01*
G37*
G36*
G01*
X100899900Y-48998400D02*
X102499900Y-48998400D01*
G75*
G02*
X102601500Y-49100000I0J-101600D01*
G01*
X102601500Y-49400000D01*
G75*
G02*
X102499900Y-49501600I-101600J0D01*
G01*
X100899900Y-49501600D01*
G75*
G02*
X100798300Y-49400000I0J101600D01*
G01*
X100798300Y-49100000D01*
G75*
G02*
X100899900Y-48998400I101600J0D01*
G01*
G37*
G36*
G01*
X104500100Y-48498400D02*
X106100100Y-48498400D01*
G75*
G02*
X106201700Y-48600000I0J-101600D01*
G01*
X106201700Y-48900000D01*
G75*
G02*
X106100100Y-49001600I-101600J0D01*
G01*
X104500100Y-49001600D01*
G75*
G02*
X104398500Y-48900000I0J101600D01*
G01*
X104398500Y-48600000D01*
G75*
G02*
X104500100Y-48498400I101600J0D01*
G01*
G37*
G36*
G01*
X100899900Y-48498400D02*
X102499900Y-48498400D01*
G75*
G02*
X102601500Y-48600000I0J-101600D01*
G01*
X102601500Y-48900000D01*
G75*
G02*
X102499900Y-49001600I-101600J0D01*
G01*
X100899900Y-49001600D01*
G75*
G02*
X100798300Y-48900000I0J101600D01*
G01*
X100798300Y-48600000D01*
G75*
G02*
X100899900Y-48498400I101600J0D01*
G01*
G37*
G36*
G01*
X104500100Y-47998400D02*
X106100100Y-47998400D01*
G75*
G02*
X106201700Y-48100000I0J-101600D01*
G01*
X106201700Y-48400000D01*
G75*
G02*
X106100100Y-48501600I-101600J0D01*
G01*
X104500100Y-48501600D01*
G75*
G02*
X104398500Y-48400000I0J101600D01*
G01*
X104398500Y-48100000D01*
G75*
G02*
X104500100Y-47998400I101600J0D01*
G01*
G37*
G36*
G01*
X100899900Y-47998400D02*
X102499900Y-47998400D01*
G75*
G02*
X102601500Y-48100000I0J-101600D01*
G01*
X102601500Y-48400000D01*
G75*
G02*
X102499900Y-48501600I-101600J0D01*
G01*
X100899900Y-48501600D01*
G75*
G02*
X100798300Y-48400000I0J101600D01*
G01*
X100798300Y-48100000D01*
G75*
G02*
X100899900Y-47998400I101600J0D01*
G01*
G37*
G36*
G01*
X104500100Y-47498400D02*
X106100100Y-47498400D01*
G75*
G02*
X106201700Y-47600000I0J-101600D01*
G01*
X106201700Y-47900000D01*
G75*
G02*
X106100100Y-48001600I-101600J0D01*
G01*
X104500100Y-48001600D01*
G75*
G02*
X104398500Y-47900000I0J101600D01*
G01*
X104398500Y-47600000D01*
G75*
G02*
X104500100Y-47498400I101600J0D01*
G01*
G37*
G36*
G01*
X100899900Y-47498400D02*
X102499900Y-47498400D01*
G75*
G02*
X102601500Y-47600000I0J-101600D01*
G01*
X102601500Y-47900000D01*
G75*
G02*
X102499900Y-48001600I-101600J0D01*
G01*
X100899900Y-48001600D01*
G75*
G02*
X100798300Y-47900000I0J101600D01*
G01*
X100798300Y-47600000D01*
G75*
G02*
X100899900Y-47498400I101600J0D01*
G01*
G37*
G36*
G01*
X104500100Y-46998400D02*
X106100100Y-46998400D01*
G75*
G02*
X106201700Y-47100000I0J-101600D01*
G01*
X106201700Y-47400000D01*
G75*
G02*
X106100100Y-47501600I-101600J0D01*
G01*
X104500100Y-47501600D01*
G75*
G02*
X104398500Y-47400000I0J101600D01*
G01*
X104398500Y-47100000D01*
G75*
G02*
X104500100Y-46998400I101600J0D01*
G01*
G37*
G36*
G01*
X100899900Y-46998400D02*
X102499900Y-46998400D01*
G75*
G02*
X102601500Y-47100000I0J-101600D01*
G01*
X102601500Y-47400000D01*
G75*
G02*
X102499900Y-47501600I-101600J0D01*
G01*
X100899900Y-47501600D01*
G75*
G02*
X100798300Y-47400000I0J101600D01*
G01*
X100798300Y-47100000D01*
G75*
G02*
X100899900Y-46998400I101600J0D01*
G01*
G37*
G36*
G01*
X104500100Y-46498400D02*
X106100100Y-46498400D01*
G75*
G02*
X106201700Y-46600000I0J-101600D01*
G01*
X106201700Y-46900000D01*
G75*
G02*
X106100100Y-47001600I-101600J0D01*
G01*
X104500100Y-47001600D01*
G75*
G02*
X104398500Y-46900000I0J101600D01*
G01*
X104398500Y-46600000D01*
G75*
G02*
X104500100Y-46498400I101600J0D01*
G01*
G37*
G36*
G01*
X100899900Y-46498400D02*
X102499900Y-46498400D01*
G75*
G02*
X102601500Y-46600000I0J-101600D01*
G01*
X102601500Y-46900000D01*
G75*
G02*
X102499900Y-47001600I-101600J0D01*
G01*
X100899900Y-47001600D01*
G75*
G02*
X100798300Y-46900000I0J101600D01*
G01*
X100798300Y-46600000D01*
G75*
G02*
X100899900Y-46498400I101600J0D01*
G01*
G37*
G36*
G01*
X104500100Y-45998400D02*
X106100100Y-45998400D01*
G75*
G02*
X106201700Y-46100000I0J-101600D01*
G01*
X106201700Y-46400000D01*
G75*
G02*
X106100100Y-46501600I-101600J0D01*
G01*
X104500100Y-46501600D01*
G75*
G02*
X104398500Y-46400000I0J101600D01*
G01*
X104398500Y-46100000D01*
G75*
G02*
X104500100Y-45998400I101600J0D01*
G01*
G37*
G36*
G01*
X100899900Y-45998400D02*
X102499900Y-45998400D01*
G75*
G02*
X102601500Y-46100000I0J-101600D01*
G01*
X102601500Y-46400000D01*
G75*
G02*
X102499900Y-46501600I-101600J0D01*
G01*
X100899900Y-46501600D01*
G75*
G02*
X100798300Y-46400000I0J101600D01*
G01*
X100798300Y-46100000D01*
G75*
G02*
X100899900Y-45998400I101600J0D01*
G01*
G37*
G36*
G01*
X104500100Y-45498400D02*
X106100100Y-45498400D01*
G75*
G02*
X106201700Y-45600000I0J-101600D01*
G01*
X106201700Y-45900000D01*
G75*
G02*
X106100100Y-46001600I-101600J0D01*
G01*
X104500100Y-46001600D01*
G75*
G02*
X104398500Y-45900000I0J101600D01*
G01*
X104398500Y-45600000D01*
G75*
G02*
X104500100Y-45498400I101600J0D01*
G01*
G37*
G36*
G01*
X100899900Y-45498400D02*
X102499900Y-45498400D01*
G75*
G02*
X102601500Y-45600000I0J-101600D01*
G01*
X102601500Y-45900000D01*
G75*
G02*
X102499900Y-46001600I-101600J0D01*
G01*
X100899900Y-46001600D01*
G75*
G02*
X100798300Y-45900000I0J101600D01*
G01*
X100798300Y-45600000D01*
G75*
G02*
X100899900Y-45498400I101600J0D01*
G01*
G37*
G36*
G01*
X104500100Y-44998400D02*
X106100100Y-44998400D01*
G75*
G02*
X106201700Y-45100000I0J-101600D01*
G01*
X106201700Y-45400000D01*
G75*
G02*
X106100100Y-45501600I-101600J0D01*
G01*
X104500100Y-45501600D01*
G75*
G02*
X104398500Y-45400000I0J101600D01*
G01*
X104398500Y-45100000D01*
G75*
G02*
X104500100Y-44998400I101600J0D01*
G01*
G37*
G36*
G01*
X100899900Y-44998400D02*
X102499900Y-44998400D01*
G75*
G02*
X102601500Y-45100000I0J-101600D01*
G01*
X102601500Y-45400000D01*
G75*
G02*
X102499900Y-45501600I-101600J0D01*
G01*
X100899900Y-45501600D01*
G75*
G02*
X100798300Y-45400000I0J101600D01*
G01*
X100798300Y-45100000D01*
G75*
G02*
X100899900Y-44998400I101600J0D01*
G01*
G37*
G36*
G01*
X104500100Y-44498400D02*
X106100100Y-44498400D01*
G75*
G02*
X106201700Y-44600000I0J-101600D01*
G01*
X106201700Y-44900000D01*
G75*
G02*
X106100100Y-45001600I-101600J0D01*
G01*
X104500100Y-45001600D01*
G75*
G02*
X104398500Y-44900000I0J101600D01*
G01*
X104398500Y-44600000D01*
G75*
G02*
X104500100Y-44498400I101600J0D01*
G01*
G37*
G36*
G01*
X100899900Y-44498400D02*
X102499900Y-44498400D01*
G75*
G02*
X102601500Y-44600000I0J-101600D01*
G01*
X102601500Y-44900000D01*
G75*
G02*
X102499900Y-45001600I-101600J0D01*
G01*
X100899900Y-45001600D01*
G75*
G02*
X100798300Y-44900000I0J101600D01*
G01*
X100798300Y-44600000D01*
G75*
G02*
X100899900Y-44498400I101600J0D01*
G01*
G37*
G36*
G01*
X104500100Y-43998400D02*
X106100100Y-43998400D01*
G75*
G02*
X106201700Y-44100000I0J-101600D01*
G01*
X106201700Y-44400000D01*
G75*
G02*
X106100100Y-44501600I-101600J0D01*
G01*
X104500100Y-44501600D01*
G75*
G02*
X104398500Y-44400000I0J101600D01*
G01*
X104398500Y-44100000D01*
G75*
G02*
X104500100Y-43998400I101600J0D01*
G01*
G37*
G36*
G01*
X100899900Y-43998400D02*
X102499900Y-43998400D01*
G75*
G02*
X102601500Y-44100000I0J-101600D01*
G01*
X102601500Y-44400000D01*
G75*
G02*
X102499900Y-44501600I-101600J0D01*
G01*
X100899900Y-44501600D01*
G75*
G02*
X100798300Y-44400000I0J101600D01*
G01*
X100798300Y-44100000D01*
G75*
G02*
X100899900Y-43998400I101600J0D01*
G01*
G37*
G36*
G01*
X104500100Y-43498400D02*
X106100100Y-43498400D01*
G75*
G02*
X106201700Y-43600000I0J-101600D01*
G01*
X106201700Y-43900000D01*
G75*
G02*
X106100100Y-44001600I-101600J0D01*
G01*
X104500100Y-44001600D01*
G75*
G02*
X104398500Y-43900000I0J101600D01*
G01*
X104398500Y-43600000D01*
G75*
G02*
X104500100Y-43498400I101600J0D01*
G01*
G37*
G36*
G01*
X100899900Y-43498400D02*
X102499900Y-43498400D01*
G75*
G02*
X102601500Y-43600000I0J-101600D01*
G01*
X102601500Y-43900000D01*
G75*
G02*
X102499900Y-44001600I-101600J0D01*
G01*
X100899900Y-44001600D01*
G75*
G02*
X100798300Y-43900000I0J101600D01*
G01*
X100798300Y-43600000D01*
G75*
G02*
X100899900Y-43498400I101600J0D01*
G01*
G37*
G36*
G01*
X104500100Y-42998400D02*
X106100100Y-42998400D01*
G75*
G02*
X106201700Y-43100000I0J-101600D01*
G01*
X106201700Y-43400000D01*
G75*
G02*
X106100100Y-43501600I-101600J0D01*
G01*
X104500100Y-43501600D01*
G75*
G02*
X104398500Y-43400000I0J101600D01*
G01*
X104398500Y-43100000D01*
G75*
G02*
X104500100Y-42998400I101600J0D01*
G01*
G37*
G36*
G01*
X100899900Y-42998400D02*
X102499900Y-42998400D01*
G75*
G02*
X102601500Y-43100000I0J-101600D01*
G01*
X102601500Y-43400000D01*
G75*
G02*
X102499900Y-43501600I-101600J0D01*
G01*
X100899900Y-43501600D01*
G75*
G02*
X100798300Y-43400000I0J101600D01*
G01*
X100798300Y-43100000D01*
G75*
G02*
X100899900Y-42998400I101600J0D01*
G01*
G37*
G36*
G01*
X104500100Y-42498400D02*
X106100100Y-42498400D01*
G75*
G02*
X106201700Y-42600000I0J-101600D01*
G01*
X106201700Y-42900000D01*
G75*
G02*
X106100100Y-43001600I-101600J0D01*
G01*
X104500100Y-43001600D01*
G75*
G02*
X104398500Y-42900000I0J101600D01*
G01*
X104398500Y-42600000D01*
G75*
G02*
X104500100Y-42498400I101600J0D01*
G01*
G37*
G36*
G01*
X100899900Y-42498400D02*
X102499900Y-42498400D01*
G75*
G02*
X102601500Y-42600000I0J-101600D01*
G01*
X102601500Y-42900000D01*
G75*
G02*
X102499900Y-43001600I-101600J0D01*
G01*
X100899900Y-43001600D01*
G75*
G02*
X100798300Y-42900000I0J101600D01*
G01*
X100798300Y-42600000D01*
G75*
G02*
X100899900Y-42498400I101600J0D01*
G01*
G37*
%TD*%
D10*
%TO.C,REF\u002A\u002A*%
X102000000Y-61000000D03*
%TD*%
D11*
%TO.C,J2*%
X106540000Y-36600000D03*
D12*
X104000000Y-36600000D03*
%TD*%
D13*
%TO.C,J3*%
X102000000Y-41200000D03*
X102000000Y-51800000D03*
%TD*%
M02*
