%TF.GenerationSoftware,KiCad,Pcbnew,(5.1.10)-1*%
%TF.CreationDate,2022-02-21T15:46:47+01:00*%
%TF.ProjectId,MovuinoShieldPressure,4d6f7675-696e-46f5-9368-69656c645072,1.0*%
%TF.SameCoordinates,Original*%
%TF.FileFunction,Copper,L2,Bot*%
%TF.FilePolarity,Positive*%
%FSLAX46Y46*%
G04 Gerber Fmt 4.6, Leading zero omitted, Abs format (unit mm)*
G04 Created by KiCad (PCBNEW (5.1.10)-1) date 2022-02-21 15:46:47*
%MOMM*%
%LPD*%
G01*
G04 APERTURE LIST*
%TA.AperFunction,WasherPad*%
%ADD10C,2.100000*%
%TD*%
%TA.AperFunction,ComponentPad*%
%ADD11O,1.700000X1.700000*%
%TD*%
%TA.AperFunction,ComponentPad*%
%ADD12R,1.700000X1.700000*%
%TD*%
%TA.AperFunction,SMDPad,CuDef*%
%ADD13R,1.600000X0.300000*%
%TD*%
%TA.AperFunction,ViaPad*%
%ADD14C,0.800000*%
%TD*%
%TA.AperFunction,Conductor*%
%ADD15C,0.250000*%
%TD*%
%TA.AperFunction,Conductor*%
%ADD16C,0.254000*%
%TD*%
%TA.AperFunction,Conductor*%
%ADD17C,0.100000*%
%TD*%
G04 APERTURE END LIST*
D10*
%TO.P,REF\u002A\u002A,*%
%TO.N,*%
X102000000Y-32000000D03*
%TD*%
%TO.P,REF\u002A\u002A,*%
%TO.N,*%
X102000000Y-61000000D03*
%TD*%
D11*
%TO.P,J2,2*%
%TO.N,/ADC*%
X106540000Y-36600000D03*
D12*
%TO.P,J2,1*%
%TO.N,VCC*%
X104000000Y-36600000D03*
%TD*%
D13*
%TO.P,J3,3*%
%TO.N,/ADC*%
X105300100Y-42750000D03*
%TO.P,J3,4*%
%TO.N,Net-(J3-Pad4)*%
X101699900Y-42750000D03*
%TO.P,J3,5*%
%TO.N,Net-(J3-Pad5)*%
X105300100Y-43250000D03*
%TO.P,J3,6*%
%TO.N,Net-(J3-Pad6)*%
X101699900Y-43250000D03*
%TO.P,J3,7*%
%TO.N,Net-(J3-Pad7)*%
X105300100Y-43750000D03*
%TO.P,J3,8*%
%TO.N,Net-(J3-Pad8)*%
X101699900Y-43750000D03*
%TO.P,J3,9*%
%TO.N,Net-(J3-Pad9)*%
X105300100Y-44250000D03*
%TO.P,J3,10*%
%TO.N,Net-(J3-Pad10)*%
X101699900Y-44250000D03*
%TO.P,J3,11*%
%TO.N,Net-(J3-Pad11)*%
X105300100Y-44750000D03*
%TO.P,J3,12*%
%TO.N,Net-(J3-Pad12)*%
X101699900Y-44750000D03*
%TO.P,J3,13*%
%TO.N,Net-(J3-Pad13)*%
X105300100Y-45250000D03*
%TO.P,J3,14*%
%TO.N,Net-(J3-Pad14)*%
X101699900Y-45250000D03*
%TO.P,J3,15*%
%TO.N,Net-(J3-Pad15)*%
X105300100Y-45750000D03*
%TO.P,J3,16*%
%TO.N,Net-(J3-Pad16)*%
X101699900Y-45750000D03*
%TO.P,J3,17*%
%TO.N,Net-(J3-Pad17)*%
X105300100Y-46250000D03*
%TO.P,J3,18*%
%TO.N,Net-(J3-Pad18)*%
X101699900Y-46250000D03*
%TO.P,J3,19*%
%TO.N,Net-(J3-Pad19)*%
X105300100Y-46750000D03*
%TO.P,J3,20*%
%TO.N,Net-(J3-Pad20)*%
X101699900Y-46750000D03*
%TO.P,J3,21*%
%TO.N,Net-(J3-Pad21)*%
X105300100Y-47250000D03*
%TO.P,J3,22*%
%TO.N,Net-(J3-Pad22)*%
X101699900Y-47250000D03*
%TO.P,J3,23*%
%TO.N,Net-(J3-Pad23)*%
X105300100Y-47750000D03*
%TO.P,J3,24*%
%TO.N,Net-(J3-Pad24)*%
X101699900Y-47750000D03*
%TO.P,J3,25*%
%TO.N,Net-(J3-Pad25)*%
X105300100Y-48250000D03*
%TO.P,J3,26*%
%TO.N,Net-(J3-Pad26)*%
X101699900Y-48250000D03*
%TO.P,J3,27*%
%TO.N,Net-(J3-Pad27)*%
X105300100Y-48750000D03*
%TO.P,J3,28*%
%TO.N,Net-(J3-Pad28)*%
X101699900Y-48750000D03*
%TO.P,J3,29*%
%TO.N,Net-(J3-Pad29)*%
X105300100Y-49250000D03*
%TO.P,J3,30*%
%TO.N,Net-(J3-Pad30)*%
X101699900Y-49250000D03*
%TO.P,J3,31*%
%TO.N,Net-(J3-Pad31)*%
X105300100Y-49750000D03*
%TO.P,J3,32*%
%TO.N,VCC*%
X101699900Y-49750000D03*
%TO.P,J3,33*%
%TO.N,Net-(J3-Pad33)*%
X105300100Y-50250000D03*
%TO.P,J3,34*%
%TO.N,GND*%
X101699900Y-50250000D03*
%TO.P,J3,36*%
X101699900Y-50750000D03*
%TO.P,J3,2*%
%TO.N,Net-(J3-Pad2)*%
X101699900Y-42250000D03*
%TO.P,J3,1*%
%TO.N,Net-(J3-Pad1)*%
X105300100Y-42250000D03*
%TO.P,J3,35*%
%TO.N,Net-(J3-Pad35)*%
X105300100Y-50750000D03*
%TD*%
%TO.P,Rref,2*%
%TO.N,GND*%
%TA.AperFunction,SMDPad,CuDef*%
G36*
G01*
X104575000Y-55762500D02*
X104575000Y-56237500D01*
G75*
G02*
X104337500Y-56475000I-237500J0D01*
G01*
X103837500Y-56475000D01*
G75*
G02*
X103600000Y-56237500I0J237500D01*
G01*
X103600000Y-55762500D01*
G75*
G02*
X103837500Y-55525000I237500J0D01*
G01*
X104337500Y-55525000D01*
G75*
G02*
X104575000Y-55762500I0J-237500D01*
G01*
G37*
%TD.AperFunction*%
%TO.P,Rref,1*%
%TO.N,/ADC*%
%TA.AperFunction,SMDPad,CuDef*%
G36*
G01*
X106400000Y-55762500D02*
X106400000Y-56237500D01*
G75*
G02*
X106162500Y-56475000I-237500J0D01*
G01*
X105662500Y-56475000D01*
G75*
G02*
X105425000Y-56237500I0J237500D01*
G01*
X105425000Y-55762500D01*
G75*
G02*
X105662500Y-55525000I237500J0D01*
G01*
X106162500Y-55525000D01*
G75*
G02*
X106400000Y-55762500I0J-237500D01*
G01*
G37*
%TD.AperFunction*%
%TD*%
D14*
%TO.N,/ADC*%
X107600000Y-42800000D03*
%TO.N,VCC*%
X103500000Y-47400000D03*
%TO.N,GND*%
X103600000Y-52300000D03*
%TD*%
D15*
%TO.N,/ADC*%
X107550000Y-42750000D02*
X107600000Y-42800000D01*
X105900100Y-42750000D02*
X107550000Y-42750000D01*
X107600000Y-41200000D02*
X107600000Y-42800000D01*
X106540000Y-40140000D02*
X107600000Y-41200000D01*
X105912500Y-55087500D02*
X105912500Y-56000000D01*
X108250000Y-52750000D02*
X105912500Y-55087500D01*
X108250000Y-43450000D02*
X108250000Y-52750000D01*
X107600000Y-42800000D02*
X108250000Y-43450000D01*
X106540000Y-40140000D02*
X106540000Y-36600000D01*
%TO.N,VCC*%
X101699900Y-49750000D02*
X102750000Y-49750000D01*
X102750000Y-49750000D02*
X103500000Y-49000000D01*
X103500000Y-47400000D02*
X103500000Y-38750000D01*
X103500000Y-49000000D02*
X103500000Y-47400000D01*
X103500000Y-38750000D02*
X104000000Y-38250000D01*
X104000000Y-38250000D02*
X104000000Y-36600000D01*
%TO.N,GND*%
X101699900Y-50750000D02*
X103250000Y-50750000D01*
X101699900Y-50250000D02*
X101699900Y-50750000D01*
%TD*%
D16*
%TO.N,GND*%
X109840001Y-62340000D02*
X103027468Y-62340000D01*
X103074125Y-62308825D01*
X103308825Y-62074125D01*
X103493228Y-61798147D01*
X103620246Y-61491496D01*
X103685000Y-61165958D01*
X103685000Y-60834042D01*
X103620246Y-60508504D01*
X103493228Y-60201853D01*
X103308825Y-59925875D01*
X103074125Y-59691175D01*
X102798147Y-59506772D01*
X102491496Y-59379754D01*
X102165958Y-59315000D01*
X101834042Y-59315000D01*
X101508504Y-59379754D01*
X101201853Y-59506772D01*
X100925875Y-59691175D01*
X100691175Y-59925875D01*
X100660000Y-59972532D01*
X100660000Y-56475000D01*
X102961928Y-56475000D01*
X102974188Y-56599482D01*
X103010498Y-56719180D01*
X103069463Y-56829494D01*
X103148815Y-56926185D01*
X103245506Y-57005537D01*
X103355820Y-57064502D01*
X103475518Y-57100812D01*
X103600000Y-57113072D01*
X103801750Y-57110000D01*
X103960500Y-56951250D01*
X103960500Y-56127000D01*
X103123750Y-56127000D01*
X102965000Y-56285750D01*
X102961928Y-56475000D01*
X100660000Y-56475000D01*
X100660000Y-55525000D01*
X102961928Y-55525000D01*
X102965000Y-55714250D01*
X103123750Y-55873000D01*
X103960500Y-55873000D01*
X103960500Y-55048750D01*
X103801750Y-54890000D01*
X103600000Y-54886928D01*
X103475518Y-54899188D01*
X103355820Y-54935498D01*
X103245506Y-54994463D01*
X103148815Y-55073815D01*
X103069463Y-55170506D01*
X103010498Y-55280820D01*
X102974188Y-55400518D01*
X102961928Y-55525000D01*
X100660000Y-55525000D01*
X100660000Y-51490784D01*
X100664119Y-51492911D01*
X100784320Y-51527517D01*
X100908963Y-51538008D01*
X101047981Y-51537180D01*
X101015000Y-51702986D01*
X101015000Y-51897014D01*
X101052853Y-52087314D01*
X101127104Y-52266572D01*
X101234901Y-52427901D01*
X101372099Y-52565099D01*
X101533428Y-52672896D01*
X101712686Y-52747147D01*
X101902986Y-52785000D01*
X102097014Y-52785000D01*
X102287314Y-52747147D01*
X102466572Y-52672896D01*
X102627901Y-52565099D01*
X102765099Y-52427901D01*
X102872896Y-52266572D01*
X102947147Y-52087314D01*
X102985000Y-51897014D01*
X102985000Y-51702986D01*
X102947147Y-51512686D01*
X102898214Y-51394551D01*
X102944631Y-51357548D01*
X103025349Y-51261994D01*
X103085874Y-51152528D01*
X103123880Y-51033358D01*
X103134900Y-50931750D01*
X102997780Y-50794630D01*
X103025349Y-50761994D01*
X103085874Y-50652528D01*
X103102381Y-50600769D01*
X103134900Y-50568250D01*
X103127498Y-50500000D01*
X103134900Y-50431750D01*
X103118133Y-50414983D01*
X103174276Y-50384974D01*
X103290001Y-50290001D01*
X103313803Y-50260998D01*
X103862028Y-49712774D01*
X103862028Y-49900000D01*
X103871877Y-50000000D01*
X103862028Y-50100000D01*
X103862028Y-50400000D01*
X103871877Y-50500000D01*
X103862028Y-50600000D01*
X103862028Y-50900000D01*
X103874288Y-51024482D01*
X103910598Y-51144180D01*
X103969563Y-51254494D01*
X104048915Y-51351185D01*
X104145606Y-51430537D01*
X104255920Y-51489502D01*
X104375618Y-51525812D01*
X104500100Y-51538072D01*
X106100100Y-51538072D01*
X106224582Y-51525812D01*
X106344280Y-51489502D01*
X106454594Y-51430537D01*
X106551285Y-51351185D01*
X106630637Y-51254494D01*
X106689602Y-51144180D01*
X106725912Y-51024482D01*
X106738172Y-50900000D01*
X106738172Y-50600000D01*
X106728323Y-50500000D01*
X106738172Y-50400000D01*
X106738172Y-50100000D01*
X106728323Y-50000000D01*
X106738172Y-49900000D01*
X106738172Y-49600000D01*
X106728323Y-49500000D01*
X106738172Y-49400000D01*
X106738172Y-49100000D01*
X106728323Y-49000000D01*
X106738172Y-48900000D01*
X106738172Y-48600000D01*
X106728323Y-48500000D01*
X106738172Y-48400000D01*
X106738172Y-48100000D01*
X106728323Y-48000000D01*
X106738172Y-47900000D01*
X106738172Y-47600000D01*
X106728323Y-47500000D01*
X106738172Y-47400000D01*
X106738172Y-47100000D01*
X106728323Y-47000000D01*
X106738172Y-46900000D01*
X106738172Y-46600000D01*
X106728323Y-46500000D01*
X106738172Y-46400000D01*
X106738172Y-46100000D01*
X106728323Y-46000000D01*
X106738172Y-45900000D01*
X106738172Y-45600000D01*
X106728323Y-45500000D01*
X106738172Y-45400000D01*
X106738172Y-45100000D01*
X106728323Y-45000000D01*
X106738172Y-44900000D01*
X106738172Y-44600000D01*
X106728323Y-44500000D01*
X106738172Y-44400000D01*
X106738172Y-44100000D01*
X106728323Y-44000000D01*
X106738172Y-43900000D01*
X106738172Y-43600000D01*
X106729308Y-43510000D01*
X106846289Y-43510000D01*
X106940226Y-43603937D01*
X107109744Y-43717205D01*
X107298102Y-43795226D01*
X107490000Y-43833397D01*
X107490001Y-52435197D01*
X105401503Y-54523696D01*
X105372499Y-54547499D01*
X105317371Y-54614674D01*
X105277526Y-54663224D01*
X105206955Y-54795253D01*
X105206954Y-54795254D01*
X105163497Y-54938515D01*
X105152500Y-55050168D01*
X105152500Y-55050178D01*
X105152110Y-55054142D01*
X105067217Y-55123812D01*
X105026185Y-55073815D01*
X104929494Y-54994463D01*
X104819180Y-54935498D01*
X104699482Y-54899188D01*
X104575000Y-54886928D01*
X104373250Y-54890000D01*
X104214500Y-55048750D01*
X104214500Y-55873000D01*
X104234500Y-55873000D01*
X104234500Y-56127000D01*
X104214500Y-56127000D01*
X104214500Y-56951250D01*
X104373250Y-57110000D01*
X104575000Y-57113072D01*
X104699482Y-57100812D01*
X104819180Y-57064502D01*
X104929494Y-57005537D01*
X105026185Y-56926185D01*
X105067217Y-56876188D01*
X105176058Y-56965512D01*
X105327433Y-57046423D01*
X105491684Y-57096248D01*
X105662500Y-57113072D01*
X106162500Y-57113072D01*
X106333316Y-57096248D01*
X106497567Y-57046423D01*
X106648942Y-56965512D01*
X106781623Y-56856623D01*
X106890512Y-56723942D01*
X106971423Y-56572567D01*
X107021248Y-56408316D01*
X107038072Y-56237500D01*
X107038072Y-55762500D01*
X107021248Y-55591684D01*
X106971423Y-55427433D01*
X106890512Y-55276058D01*
X106849147Y-55225654D01*
X108761003Y-53313799D01*
X108790001Y-53290001D01*
X108884974Y-53174276D01*
X108955546Y-53042247D01*
X108999003Y-52898986D01*
X109010000Y-52787333D01*
X109010000Y-52787324D01*
X109013676Y-52750001D01*
X109010000Y-52712678D01*
X109010000Y-43487323D01*
X109013676Y-43450000D01*
X109010000Y-43412677D01*
X109010000Y-43412667D01*
X108999003Y-43301014D01*
X108955546Y-43157753D01*
X108884974Y-43025724D01*
X108790001Y-42909999D01*
X108761004Y-42886202D01*
X108635000Y-42760198D01*
X108635000Y-42698061D01*
X108595226Y-42498102D01*
X108517205Y-42309744D01*
X108403937Y-42140226D01*
X108360000Y-42096289D01*
X108360000Y-41237322D01*
X108363676Y-41199999D01*
X108360000Y-41162676D01*
X108360000Y-41162667D01*
X108349003Y-41051014D01*
X108305546Y-40907753D01*
X108234974Y-40775724D01*
X108200263Y-40733428D01*
X108163799Y-40688996D01*
X108163795Y-40688992D01*
X108140001Y-40659999D01*
X108111009Y-40636206D01*
X107300000Y-39825199D01*
X107300000Y-37878178D01*
X107486632Y-37753475D01*
X107693475Y-37546632D01*
X107855990Y-37303411D01*
X107967932Y-37033158D01*
X108025000Y-36746260D01*
X108025000Y-36453740D01*
X107967932Y-36166842D01*
X107855990Y-35896589D01*
X107693475Y-35653368D01*
X107486632Y-35446525D01*
X107243411Y-35284010D01*
X106973158Y-35172068D01*
X106686260Y-35115000D01*
X106393740Y-35115000D01*
X106106842Y-35172068D01*
X105836589Y-35284010D01*
X105593368Y-35446525D01*
X105461513Y-35578380D01*
X105439502Y-35505820D01*
X105380537Y-35395506D01*
X105301185Y-35298815D01*
X105204494Y-35219463D01*
X105094180Y-35160498D01*
X104974482Y-35124188D01*
X104850000Y-35111928D01*
X103150000Y-35111928D01*
X103025518Y-35124188D01*
X102905820Y-35160498D01*
X102795506Y-35219463D01*
X102698815Y-35298815D01*
X102619463Y-35395506D01*
X102560498Y-35505820D01*
X102524188Y-35625518D01*
X102511928Y-35750000D01*
X102511928Y-37450000D01*
X102524188Y-37574482D01*
X102560498Y-37694180D01*
X102619463Y-37804494D01*
X102698815Y-37901185D01*
X102795506Y-37980537D01*
X102905820Y-38039502D01*
X103025518Y-38075812D01*
X103092764Y-38082435D01*
X102988998Y-38186201D01*
X102960000Y-38209999D01*
X102936202Y-38238997D01*
X102936201Y-38238998D01*
X102865026Y-38325724D01*
X102794454Y-38457754D01*
X102750998Y-38601015D01*
X102736324Y-38750000D01*
X102740001Y-38787332D01*
X102740001Y-40547001D01*
X102627901Y-40434901D01*
X102466572Y-40327104D01*
X102287314Y-40252853D01*
X102097014Y-40215000D01*
X101902986Y-40215000D01*
X101712686Y-40252853D01*
X101533428Y-40327104D01*
X101372099Y-40434901D01*
X101234901Y-40572099D01*
X101127104Y-40733428D01*
X101052853Y-40912686D01*
X101015000Y-41102986D01*
X101015000Y-41297014D01*
X101047803Y-41461928D01*
X100899900Y-41461928D01*
X100775418Y-41474188D01*
X100660000Y-41509200D01*
X100660000Y-33027468D01*
X100691175Y-33074125D01*
X100925875Y-33308825D01*
X101201853Y-33493228D01*
X101508504Y-33620246D01*
X101834042Y-33685000D01*
X102165958Y-33685000D01*
X102491496Y-33620246D01*
X102798147Y-33493228D01*
X103074125Y-33308825D01*
X103308825Y-33074125D01*
X103493228Y-32798147D01*
X103620246Y-32491496D01*
X103685000Y-32165958D01*
X103685000Y-31834042D01*
X103620246Y-31508504D01*
X103493228Y-31201853D01*
X103308825Y-30925875D01*
X103074125Y-30691175D01*
X103027468Y-30660000D01*
X109840000Y-30660000D01*
X109840001Y-62340000D01*
%TA.AperFunction,Conductor*%
D17*
G36*
X109840001Y-62340000D02*
G01*
X103027468Y-62340000D01*
X103074125Y-62308825D01*
X103308825Y-62074125D01*
X103493228Y-61798147D01*
X103620246Y-61491496D01*
X103685000Y-61165958D01*
X103685000Y-60834042D01*
X103620246Y-60508504D01*
X103493228Y-60201853D01*
X103308825Y-59925875D01*
X103074125Y-59691175D01*
X102798147Y-59506772D01*
X102491496Y-59379754D01*
X102165958Y-59315000D01*
X101834042Y-59315000D01*
X101508504Y-59379754D01*
X101201853Y-59506772D01*
X100925875Y-59691175D01*
X100691175Y-59925875D01*
X100660000Y-59972532D01*
X100660000Y-56475000D01*
X102961928Y-56475000D01*
X102974188Y-56599482D01*
X103010498Y-56719180D01*
X103069463Y-56829494D01*
X103148815Y-56926185D01*
X103245506Y-57005537D01*
X103355820Y-57064502D01*
X103475518Y-57100812D01*
X103600000Y-57113072D01*
X103801750Y-57110000D01*
X103960500Y-56951250D01*
X103960500Y-56127000D01*
X103123750Y-56127000D01*
X102965000Y-56285750D01*
X102961928Y-56475000D01*
X100660000Y-56475000D01*
X100660000Y-55525000D01*
X102961928Y-55525000D01*
X102965000Y-55714250D01*
X103123750Y-55873000D01*
X103960500Y-55873000D01*
X103960500Y-55048750D01*
X103801750Y-54890000D01*
X103600000Y-54886928D01*
X103475518Y-54899188D01*
X103355820Y-54935498D01*
X103245506Y-54994463D01*
X103148815Y-55073815D01*
X103069463Y-55170506D01*
X103010498Y-55280820D01*
X102974188Y-55400518D01*
X102961928Y-55525000D01*
X100660000Y-55525000D01*
X100660000Y-51490784D01*
X100664119Y-51492911D01*
X100784320Y-51527517D01*
X100908963Y-51538008D01*
X101047981Y-51537180D01*
X101015000Y-51702986D01*
X101015000Y-51897014D01*
X101052853Y-52087314D01*
X101127104Y-52266572D01*
X101234901Y-52427901D01*
X101372099Y-52565099D01*
X101533428Y-52672896D01*
X101712686Y-52747147D01*
X101902986Y-52785000D01*
X102097014Y-52785000D01*
X102287314Y-52747147D01*
X102466572Y-52672896D01*
X102627901Y-52565099D01*
X102765099Y-52427901D01*
X102872896Y-52266572D01*
X102947147Y-52087314D01*
X102985000Y-51897014D01*
X102985000Y-51702986D01*
X102947147Y-51512686D01*
X102898214Y-51394551D01*
X102944631Y-51357548D01*
X103025349Y-51261994D01*
X103085874Y-51152528D01*
X103123880Y-51033358D01*
X103134900Y-50931750D01*
X102997780Y-50794630D01*
X103025349Y-50761994D01*
X103085874Y-50652528D01*
X103102381Y-50600769D01*
X103134900Y-50568250D01*
X103127498Y-50500000D01*
X103134900Y-50431750D01*
X103118133Y-50414983D01*
X103174276Y-50384974D01*
X103290001Y-50290001D01*
X103313803Y-50260998D01*
X103862028Y-49712774D01*
X103862028Y-49900000D01*
X103871877Y-50000000D01*
X103862028Y-50100000D01*
X103862028Y-50400000D01*
X103871877Y-50500000D01*
X103862028Y-50600000D01*
X103862028Y-50900000D01*
X103874288Y-51024482D01*
X103910598Y-51144180D01*
X103969563Y-51254494D01*
X104048915Y-51351185D01*
X104145606Y-51430537D01*
X104255920Y-51489502D01*
X104375618Y-51525812D01*
X104500100Y-51538072D01*
X106100100Y-51538072D01*
X106224582Y-51525812D01*
X106344280Y-51489502D01*
X106454594Y-51430537D01*
X106551285Y-51351185D01*
X106630637Y-51254494D01*
X106689602Y-51144180D01*
X106725912Y-51024482D01*
X106738172Y-50900000D01*
X106738172Y-50600000D01*
X106728323Y-50500000D01*
X106738172Y-50400000D01*
X106738172Y-50100000D01*
X106728323Y-50000000D01*
X106738172Y-49900000D01*
X106738172Y-49600000D01*
X106728323Y-49500000D01*
X106738172Y-49400000D01*
X106738172Y-49100000D01*
X106728323Y-49000000D01*
X106738172Y-48900000D01*
X106738172Y-48600000D01*
X106728323Y-48500000D01*
X106738172Y-48400000D01*
X106738172Y-48100000D01*
X106728323Y-48000000D01*
X106738172Y-47900000D01*
X106738172Y-47600000D01*
X106728323Y-47500000D01*
X106738172Y-47400000D01*
X106738172Y-47100000D01*
X106728323Y-47000000D01*
X106738172Y-46900000D01*
X106738172Y-46600000D01*
X106728323Y-46500000D01*
X106738172Y-46400000D01*
X106738172Y-46100000D01*
X106728323Y-46000000D01*
X106738172Y-45900000D01*
X106738172Y-45600000D01*
X106728323Y-45500000D01*
X106738172Y-45400000D01*
X106738172Y-45100000D01*
X106728323Y-45000000D01*
X106738172Y-44900000D01*
X106738172Y-44600000D01*
X106728323Y-44500000D01*
X106738172Y-44400000D01*
X106738172Y-44100000D01*
X106728323Y-44000000D01*
X106738172Y-43900000D01*
X106738172Y-43600000D01*
X106729308Y-43510000D01*
X106846289Y-43510000D01*
X106940226Y-43603937D01*
X107109744Y-43717205D01*
X107298102Y-43795226D01*
X107490000Y-43833397D01*
X107490001Y-52435197D01*
X105401503Y-54523696D01*
X105372499Y-54547499D01*
X105317371Y-54614674D01*
X105277526Y-54663224D01*
X105206955Y-54795253D01*
X105206954Y-54795254D01*
X105163497Y-54938515D01*
X105152500Y-55050168D01*
X105152500Y-55050178D01*
X105152110Y-55054142D01*
X105067217Y-55123812D01*
X105026185Y-55073815D01*
X104929494Y-54994463D01*
X104819180Y-54935498D01*
X104699482Y-54899188D01*
X104575000Y-54886928D01*
X104373250Y-54890000D01*
X104214500Y-55048750D01*
X104214500Y-55873000D01*
X104234500Y-55873000D01*
X104234500Y-56127000D01*
X104214500Y-56127000D01*
X104214500Y-56951250D01*
X104373250Y-57110000D01*
X104575000Y-57113072D01*
X104699482Y-57100812D01*
X104819180Y-57064502D01*
X104929494Y-57005537D01*
X105026185Y-56926185D01*
X105067217Y-56876188D01*
X105176058Y-56965512D01*
X105327433Y-57046423D01*
X105491684Y-57096248D01*
X105662500Y-57113072D01*
X106162500Y-57113072D01*
X106333316Y-57096248D01*
X106497567Y-57046423D01*
X106648942Y-56965512D01*
X106781623Y-56856623D01*
X106890512Y-56723942D01*
X106971423Y-56572567D01*
X107021248Y-56408316D01*
X107038072Y-56237500D01*
X107038072Y-55762500D01*
X107021248Y-55591684D01*
X106971423Y-55427433D01*
X106890512Y-55276058D01*
X106849147Y-55225654D01*
X108761003Y-53313799D01*
X108790001Y-53290001D01*
X108884974Y-53174276D01*
X108955546Y-53042247D01*
X108999003Y-52898986D01*
X109010000Y-52787333D01*
X109010000Y-52787324D01*
X109013676Y-52750001D01*
X109010000Y-52712678D01*
X109010000Y-43487323D01*
X109013676Y-43450000D01*
X109010000Y-43412677D01*
X109010000Y-43412667D01*
X108999003Y-43301014D01*
X108955546Y-43157753D01*
X108884974Y-43025724D01*
X108790001Y-42909999D01*
X108761004Y-42886202D01*
X108635000Y-42760198D01*
X108635000Y-42698061D01*
X108595226Y-42498102D01*
X108517205Y-42309744D01*
X108403937Y-42140226D01*
X108360000Y-42096289D01*
X108360000Y-41237322D01*
X108363676Y-41199999D01*
X108360000Y-41162676D01*
X108360000Y-41162667D01*
X108349003Y-41051014D01*
X108305546Y-40907753D01*
X108234974Y-40775724D01*
X108200263Y-40733428D01*
X108163799Y-40688996D01*
X108163795Y-40688992D01*
X108140001Y-40659999D01*
X108111009Y-40636206D01*
X107300000Y-39825199D01*
X107300000Y-37878178D01*
X107486632Y-37753475D01*
X107693475Y-37546632D01*
X107855990Y-37303411D01*
X107967932Y-37033158D01*
X108025000Y-36746260D01*
X108025000Y-36453740D01*
X107967932Y-36166842D01*
X107855990Y-35896589D01*
X107693475Y-35653368D01*
X107486632Y-35446525D01*
X107243411Y-35284010D01*
X106973158Y-35172068D01*
X106686260Y-35115000D01*
X106393740Y-35115000D01*
X106106842Y-35172068D01*
X105836589Y-35284010D01*
X105593368Y-35446525D01*
X105461513Y-35578380D01*
X105439502Y-35505820D01*
X105380537Y-35395506D01*
X105301185Y-35298815D01*
X105204494Y-35219463D01*
X105094180Y-35160498D01*
X104974482Y-35124188D01*
X104850000Y-35111928D01*
X103150000Y-35111928D01*
X103025518Y-35124188D01*
X102905820Y-35160498D01*
X102795506Y-35219463D01*
X102698815Y-35298815D01*
X102619463Y-35395506D01*
X102560498Y-35505820D01*
X102524188Y-35625518D01*
X102511928Y-35750000D01*
X102511928Y-37450000D01*
X102524188Y-37574482D01*
X102560498Y-37694180D01*
X102619463Y-37804494D01*
X102698815Y-37901185D01*
X102795506Y-37980537D01*
X102905820Y-38039502D01*
X103025518Y-38075812D01*
X103092764Y-38082435D01*
X102988998Y-38186201D01*
X102960000Y-38209999D01*
X102936202Y-38238997D01*
X102936201Y-38238998D01*
X102865026Y-38325724D01*
X102794454Y-38457754D01*
X102750998Y-38601015D01*
X102736324Y-38750000D01*
X102740001Y-38787332D01*
X102740001Y-40547001D01*
X102627901Y-40434901D01*
X102466572Y-40327104D01*
X102287314Y-40252853D01*
X102097014Y-40215000D01*
X101902986Y-40215000D01*
X101712686Y-40252853D01*
X101533428Y-40327104D01*
X101372099Y-40434901D01*
X101234901Y-40572099D01*
X101127104Y-40733428D01*
X101052853Y-40912686D01*
X101015000Y-41102986D01*
X101015000Y-41297014D01*
X101047803Y-41461928D01*
X100899900Y-41461928D01*
X100775418Y-41474188D01*
X100660000Y-41509200D01*
X100660000Y-33027468D01*
X100691175Y-33074125D01*
X100925875Y-33308825D01*
X101201853Y-33493228D01*
X101508504Y-33620246D01*
X101834042Y-33685000D01*
X102165958Y-33685000D01*
X102491496Y-33620246D01*
X102798147Y-33493228D01*
X103074125Y-33308825D01*
X103308825Y-33074125D01*
X103493228Y-32798147D01*
X103620246Y-32491496D01*
X103685000Y-32165958D01*
X103685000Y-31834042D01*
X103620246Y-31508504D01*
X103493228Y-31201853D01*
X103308825Y-30925875D01*
X103074125Y-30691175D01*
X103027468Y-30660000D01*
X109840000Y-30660000D01*
X109840001Y-62340000D01*
G37*
%TD.AperFunction*%
%TD*%
M02*
