%TF.GenerationSoftware,KiCad,Pcbnew,(5.1.10)-1*%
%TF.CreationDate,2022-02-21T15:46:47+01:00*%
%TF.ProjectId,MovuinoShieldPressure,4d6f7675-696e-46f5-9368-69656c645072,1.0*%
%TF.SameCoordinates,Original*%
%TF.FileFunction,Copper,L1,Top*%
%TF.FilePolarity,Positive*%
%FSLAX46Y46*%
G04 Gerber Fmt 4.6, Leading zero omitted, Abs format (unit mm)*
G04 Created by KiCad (PCBNEW (5.1.10)-1) date 2022-02-21 15:46:47*
%MOMM*%
%LPD*%
G01*
G04 APERTURE LIST*
%TA.AperFunction,SMDPad,CuDef*%
%ADD10R,1.600000X0.300000*%
%TD*%
%TA.AperFunction,WasherPad*%
%ADD11C,2.100000*%
%TD*%
%TA.AperFunction,ComponentPad*%
%ADD12O,1.700000X1.700000*%
%TD*%
%TA.AperFunction,ComponentPad*%
%ADD13R,1.700000X1.700000*%
%TD*%
%TA.AperFunction,ViaPad*%
%ADD14C,0.800000*%
%TD*%
%TA.AperFunction,Conductor*%
%ADD15C,0.250000*%
%TD*%
G04 APERTURE END LIST*
D10*
%TO.P,J1,35*%
%TO.N,GND*%
X101699900Y-50750000D03*
%TO.P,J1,1*%
%TO.N,Net-(J1-Pad1)*%
X101699900Y-42250000D03*
%TO.P,J1,2*%
%TO.N,Net-(J1-Pad2)*%
X105300100Y-42250000D03*
%TO.P,J1,36*%
%TO.N,Net-(J1-Pad36)*%
X105300100Y-50750000D03*
%TO.P,J1,34*%
%TO.N,Net-(J1-Pad34)*%
X105300100Y-50250000D03*
%TO.P,J1,33*%
%TO.N,GND*%
X101699900Y-50250000D03*
%TO.P,J1,32*%
%TO.N,Net-(J1-Pad32)*%
X105300100Y-49750000D03*
%TO.P,J1,31*%
%TO.N,VCC*%
X101699900Y-49750000D03*
%TO.P,J1,30*%
%TO.N,Net-(J1-Pad30)*%
X105300100Y-49250000D03*
%TO.P,J1,29*%
%TO.N,Net-(J1-Pad29)*%
X101699900Y-49250000D03*
%TO.P,J1,28*%
%TO.N,Net-(J1-Pad28)*%
X105300100Y-48750000D03*
%TO.P,J1,27*%
%TO.N,Net-(J1-Pad27)*%
X101699900Y-48750000D03*
%TO.P,J1,26*%
%TO.N,Net-(J1-Pad26)*%
X105300100Y-48250000D03*
%TO.P,J1,25*%
%TO.N,Net-(J1-Pad25)*%
X101699900Y-48250000D03*
%TO.P,J1,24*%
%TO.N,Net-(J1-Pad24)*%
X105300100Y-47750000D03*
%TO.P,J1,23*%
%TO.N,Net-(J1-Pad23)*%
X101699900Y-47750000D03*
%TO.P,J1,22*%
%TO.N,Net-(J1-Pad22)*%
X105300100Y-47250000D03*
%TO.P,J1,21*%
%TO.N,Net-(J1-Pad21)*%
X101699900Y-47250000D03*
%TO.P,J1,20*%
%TO.N,Net-(J1-Pad20)*%
X105300100Y-46750000D03*
%TO.P,J1,19*%
%TO.N,Net-(J1-Pad19)*%
X101699900Y-46750000D03*
%TO.P,J1,18*%
%TO.N,Net-(J1-Pad18)*%
X105300100Y-46250000D03*
%TO.P,J1,17*%
%TO.N,Net-(J1-Pad17)*%
X101699900Y-46250000D03*
%TO.P,J1,16*%
%TO.N,Net-(J1-Pad16)*%
X105300100Y-45750000D03*
%TO.P,J1,15*%
%TO.N,Net-(J1-Pad15)*%
X101699900Y-45750000D03*
%TO.P,J1,14*%
%TO.N,Net-(J1-Pad14)*%
X105300100Y-45250000D03*
%TO.P,J1,13*%
%TO.N,Net-(J1-Pad13)*%
X101699900Y-45250000D03*
%TO.P,J1,12*%
%TO.N,Net-(J1-Pad12)*%
X105300100Y-44750000D03*
%TO.P,J1,11*%
%TO.N,Net-(J1-Pad11)*%
X101699900Y-44750000D03*
%TO.P,J1,10*%
%TO.N,Net-(J1-Pad10)*%
X105300100Y-44250000D03*
%TO.P,J1,9*%
%TO.N,Net-(J1-Pad9)*%
X101699900Y-44250000D03*
%TO.P,J1,8*%
%TO.N,Net-(J1-Pad8)*%
X105300100Y-43750000D03*
%TO.P,J1,7*%
%TO.N,Net-(J1-Pad7)*%
X101699900Y-43750000D03*
%TO.P,J1,6*%
%TO.N,Net-(J1-Pad6)*%
X105300100Y-43250000D03*
%TO.P,J1,5*%
%TO.N,Net-(J1-Pad5)*%
X101699900Y-43250000D03*
%TO.P,J1,4*%
%TO.N,/ADC*%
X105300100Y-42750000D03*
%TO.P,J1,3*%
%TO.N,Net-(J1-Pad3)*%
X101699900Y-42750000D03*
%TD*%
D11*
%TO.P,REF\u002A\u002A,*%
%TO.N,*%
X102000000Y-32000000D03*
%TD*%
%TO.P,REF\u002A\u002A,*%
%TO.N,*%
X102000000Y-61000000D03*
%TD*%
D12*
%TO.P,J2,2*%
%TO.N,/ADC*%
X106540000Y-36600000D03*
D13*
%TO.P,J2,1*%
%TO.N,VCC*%
X104000000Y-36600000D03*
%TD*%
D14*
%TO.N,/ADC*%
X107600000Y-42800000D03*
%TO.N,VCC*%
X103500000Y-47400000D03*
%TO.N,GND*%
X103600000Y-52300000D03*
%TD*%
D15*
%TO.N,/ADC*%
X107550000Y-42750000D02*
X107600000Y-42800000D01*
X105300100Y-42750000D02*
X107550000Y-42750000D01*
%TO.N,VCC*%
X101699900Y-49750000D02*
X102749900Y-49750000D01*
X102749900Y-49750000D02*
X103500000Y-48999900D01*
X103500000Y-48999900D02*
X103500000Y-47400000D01*
%TO.N,GND*%
X101699900Y-50250000D02*
X101699900Y-50750000D01*
X101699900Y-50750000D02*
X103250000Y-50750000D01*
X103600000Y-51100000D02*
X103600000Y-52300000D01*
X103250000Y-50750000D02*
X103600000Y-51100000D01*
%TD*%
M02*
